<svg width="136" height="48" viewBox="0 0 136 48" fill="none" xmlns="http://www.w3.org/2000/svg">
<rect width="136" height="48" rx="4" fill="#FFAB00"/>
<path d="M33 28H39V22H43L36 15L29 22H33V28ZM29 30H43V32H29V30Z" fill="#03222F"/>
<path d="M61.312 29H65.712C68.224 29 69.632 27.928 69.632 25.8V25.736C69.632 24.216 68.896 23.368 67.344 23.032C68.64 22.632 69.152 21.736 69.152 20.6V20.536C69.152 18.456 67.76 17.56 65.408 17.56H61.312V29ZM63.392 27.48V23.816H65.312C66.88 23.816 67.536 24.408 67.536 25.592V25.656C67.536 26.84 66.88 27.48 65.456 27.48H63.392ZM63.392 22.376V19.08H65.12C66.48 19.08 67.104 19.544 67.104 20.632V20.696C67.104 21.864 66.56 22.376 65.152 22.376H63.392ZM74.2645 29.16C75.6245 29.16 76.5045 28.504 76.9205 27.688V29H78.8565V20.632H76.9205V25.608C76.9205 26.936 76.0085 27.608 74.9685 27.608C73.8485 27.608 73.3205 27.032 73.3205 25.768V20.632H71.3845V25.992C71.3845 28.216 72.6165 29.16 74.2645 29.16ZM84 29.144C84.592 29.144 85.008 29.048 85.312 28.936V27.4C85.04 27.512 84.752 27.56 84.368 27.56C83.76 27.56 83.408 27.224 83.408 26.488V22.088H85.248V20.632H83.408V18.792H81.472V20.632H80.352V22.088H81.472V26.664C81.472 28.248 82.336 29.144 84 29.144ZM89.9062 29.144C90.4983 29.144 90.9143 29.048 91.2183 28.936V27.4C90.9463 27.512 90.6583 27.56 90.2743 27.56C89.6663 27.56 89.3143 27.224 89.3143 26.488V22.088H91.1543V20.632H89.3143V18.792H87.3783V20.632H86.2583V22.088H87.3783V26.664C87.3783 28.248 88.2423 29.144 89.9062 29.144ZM96.7085 27.656C95.2365 27.656 94.3885 26.584 94.3885 24.872V24.744C94.3885 23.016 95.2685 21.976 96.7085 21.976C98.1485 21.976 99.0125 23.032 99.0125 24.76V24.872C99.0125 26.584 98.1485 27.656 96.7085 27.656ZM96.6925 29.16C99.1565 29.16 100.997 27.464 100.997 24.856V24.728C100.997 22.168 99.1565 20.456 96.7085 20.456C94.2445 20.456 92.4045 22.184 92.4045 24.776V24.904C92.4045 27.448 94.2285 29.16 96.6925 29.16ZM102.746 29H104.682V24.072C104.682 22.744 105.562 22.072 106.65 22.072C107.802 22.072 108.314 22.648 108.314 23.912V29H110.25V23.736C110.25 21.432 109.066 20.456 107.386 20.456C106.01 20.456 105.082 21.144 104.682 21.96V20.632H102.746V29Z" fill="#03222F"/>
</svg>
