<svg width="136" height="48" viewBox="0 0 136 48" fill="none" xmlns="http://www.w3.org/2000/svg">
<rect width="136" height="48" rx="4" fill="#F4F6F8"/>
<path d="M25.312 29H29.712C32.224 29 33.632 27.928 33.632 25.8V25.736C33.632 24.216 32.896 23.368 31.344 23.032C32.64 22.632 33.152 21.736 33.152 20.6V20.536C33.152 18.456 31.76 17.56 29.408 17.56H25.312V29ZM27.392 27.48V23.816H29.312C30.88 23.816 31.536 24.408 31.536 25.592V25.656C31.536 26.84 30.88 27.48 29.456 27.48H27.392ZM27.392 22.376V19.08H29.12C30.48 19.08 31.104 19.544 31.104 20.632V20.696C31.104 21.864 30.56 22.376 29.152 22.376H27.392ZM38.2645 29.16C39.6245 29.16 40.5045 28.504 40.9205 27.688V29H42.8565V20.632H40.9205V25.608C40.9205 26.936 40.0085 27.608 38.9685 27.608C37.8485 27.608 37.3205 27.032 37.3205 25.768V20.632H35.3845V25.992C35.3845 28.216 36.6165 29.16 38.2645 29.16ZM48 29.144C48.592 29.144 49.008 29.048 49.312 28.936V27.4C49.04 27.512 48.752 27.56 48.368 27.56C47.76 27.56 47.408 27.224 47.408 26.488V22.088H49.248V20.632H47.408V18.792H45.472V20.632H44.352V22.088H45.472V26.664C45.472 28.248 46.336 29.144 48 29.144ZM53.9062 29.144C54.4983 29.144 54.9143 29.048 55.2183 28.936V27.4C54.9463 27.512 54.6583 27.56 54.2743 27.56C53.6663 27.56 53.3143 27.224 53.3143 26.488V22.088H55.1543V20.632H53.3143V18.792H51.3783V20.632H50.2583V22.088H51.3783V26.664C51.3783 28.248 52.2423 29.144 53.9062 29.144ZM60.7085 27.656C59.2365 27.656 58.3885 26.584 58.3885 24.872V24.744C58.3885 23.016 59.2685 21.976 60.7085 21.976C62.1485 21.976 63.0125 23.032 63.0125 24.76V24.872C63.0125 26.584 62.1485 27.656 60.7085 27.656ZM60.6925 29.16C63.1565 29.16 64.9965 27.464 64.9965 24.856V24.728C64.9965 22.168 63.1565 20.456 60.7085 20.456C58.2445 20.456 56.4045 22.184 56.4045 24.776V24.904C56.4045 27.448 58.2285 29.16 60.6925 29.16ZM66.7458 29H68.6818V24.072C68.6818 22.744 69.5618 22.072 70.6498 22.072C71.8018 22.072 72.3138 22.648 72.3138 23.912V29H74.2498V23.736C74.2498 21.432 73.0658 20.456 71.3858 20.456C70.0098 20.456 69.0818 21.144 68.6818 21.96V20.632H66.7458V29Z" fill="#08509A"/>
<path d="M97 28H103V22H107L100 15L93 22H97V28ZM93 30H107V32H93V30Z" fill="#08509A"/>
</svg>
